<mxfile host="Electron" agent="Mozilla/5.0 (Macintosh; Intel Mac OS X 10_15_7) AppleWebKit/537.36 (KHTML, like Gecko) draw.io/28.0.6 Chrome/138.0.7204.100 Electron/37.2.3 Safari/537.36" version="28.0.6">
  <diagram name="Page-1" id="QVoZ1cRGxMKyArq30myL">
    <mxGraphModel dx="1234" dy="883" grid="1" gridSize="10" guides="1" tooltips="1" connect="1" arrows="1" fold="1" page="1" pageScale="1" pageWidth="827" pageHeight="1169" math="0" shadow="0">
      <root>
        <mxCell id="0" />
        <mxCell id="1" parent="0" />
        <mxCell id="_mfbnebWsyxYkhm_JBG--8" value="" style="rounded=1;whiteSpace=wrap;html=1;strokeColor=light-dark(#425765, #ededed);fillColor=light-dark(#425765, #ededed);arcSize=4;" vertex="1" parent="1">
          <mxGeometry x="110" y="292.5" width="647.5" height="220" as="geometry" />
        </mxCell>
        <mxCell id="_mfbnebWsyxYkhm_JBG--10" value="" style="group" vertex="1" connectable="0" parent="1">
          <mxGeometry x="140" y="320" width="620" height="165" as="geometry" />
        </mxCell>
        <mxCell id="_mfbnebWsyxYkhm_JBG--12" value="" style="group" vertex="1" connectable="0" parent="_mfbnebWsyxYkhm_JBG--10">
          <mxGeometry width="595" height="165" as="geometry" />
        </mxCell>
        <mxCell id="_mfbnebWsyxYkhm_JBG--1" value="" style="triangle;whiteSpace=wrap;html=1;direction=north;strokeWidth=15;strokeColor=light-dark(#bdd192, #ededed);fillColor=none;" vertex="1" parent="_mfbnebWsyxYkhm_JBG--12">
          <mxGeometry width="190" height="165" as="geometry" />
        </mxCell>
        <mxCell id="_mfbnebWsyxYkhm_JBG--11" value="" style="group" vertex="1" connectable="0" parent="_mfbnebWsyxYkhm_JBG--12">
          <mxGeometry x="215" width="380" height="165" as="geometry" />
        </mxCell>
        <mxCell id="_mfbnebWsyxYkhm_JBG--3" value="&lt;font&gt;ARIEL&lt;/font&gt;" style="text;html=1;align=center;verticalAlign=middle;whiteSpace=wrap;rounded=0;fontColor=light-dark(#94e4ff, #ededed);fontFamily=Tahoma;fontSize=101;" vertex="1" parent="_mfbnebWsyxYkhm_JBG--11">
          <mxGeometry x="42.5" width="295" height="60" as="geometry" />
        </mxCell>
        <mxCell id="_mfbnebWsyxYkhm_JBG--5" value="Autonomous&amp;nbsp; Robots through Integrated Evolution and Learning" style="text;html=1;align=center;verticalAlign=middle;whiteSpace=wrap;rounded=0;fontSize=25;fontColor=light-dark(#bdd192, #ededed);" vertex="1" parent="_mfbnebWsyxYkhm_JBG--11">
          <mxGeometry y="95" width="380" height="70" as="geometry" />
        </mxCell>
      </root>
    </mxGraphModel>
  </diagram>
</mxfile>
